<?xml version="1.0" encoding="UTF-8" standalone="no"?>
<!DOCTYPE svg PUBLIC "-//W3C//DTD SVG 1.1//EN" "http://www.w3.org/Graphics/SVG/1.1/DTD/svg11.dtd">
<svg xmlns="http://www.w3.org/2000/svg" version="1.1" viewBox="0.00 0.00 928.00 807.00">
<g stroke-width="2.00" fill="none" stroke-linecap="butt">
<path stroke="#b0a0cc" vector-effect="non-scaling-stroke" d="
  M 136.66 507.73
  Q 134.62 510.72 133.45 512.67
  Q 114.13 545.05 94.28 578.28
  Q 66.28 625.15 35.70 677.75
  Q 22.53 700.40 19.15 706.32
  Q 6.93 727.74 5.57 753.27
  Q 5.01 763.86 8.72 773.46
  C 13.12 784.86 24.42 793.13 36.02 797.31
  Q 40.87 799.06 47.74 800.79
  Q 55.59 802.77 59.75 802.77
  Q 314.64 802.81 610.00 802.58
  Q 612.98 802.58 615.96 802.69"
/>
<path stroke="#80bd9e" vector-effect="non-scaling-stroke" d="
  M 615.96 802.69
  Q 732.99 802.73 850.02 802.66
  Q 863.48 802.65 869.47 801.98
  Q 879.12 800.89 889.24 797.90
  C 904.32 793.46 919.78 783.58 923.54 767.17
  C 925.07 760.49 925.66 754.45 924.82 747.49
  Q 922.66 729.69 915.60 714.09
  Q 914.63 711.97 913.48 709.99
  Q 776.21 475.55 648.59 257.52
  Q 647.84 256.23 646.94 254.96
  Q 646.00 253.63 645.37 252.33"
/>
<path stroke="#80d5f3" vector-effect="non-scaling-stroke" d="
  M 645.37 252.33
  Q 641.71 245.54 637.95 239.14
  Q 581.22 142.49 525.49 47.50
  Q 518.10 34.89 507.50 24.61
  C 493.32 10.86 475.77 2.35 456.66 9.91
  C 441.23 16.02 428.23 27.69 417.80 40.87
  Q 413.19 46.69 406.73 57.48
  Q 348.92 153.89 328.63 187.72
  C 326.48 191.31 323.96 195.19 322.09 198.38
  Q 317.85 205.60 307.07 223.56
  Q 235.11 343.49 163.02 463.34
  Q 149.37 486.04 136.66 507.73"
/>
<path stroke="#019392" vector-effect="non-scaling-stroke" d="
  M 645.37 252.33
  Q 641.59 251.72 640.21 250.88
  Q 633.72 246.90 626.67 243.56
  Q 605.08 233.37 581.97 235.69
  C 562.21 237.68 543.35 249.24 530.38 263.99
  Q 525.73 269.27 519.02 280.15
  Q 513.81 288.58 508.73 297.09
  Q 488.27 331.32 465.89 368.70
  Q 465.14 369.96 465.14 371.96"
/>
<path stroke="#80d5f3" vector-effect="non-scaling-stroke" d="
  M 465.14 371.96
  Q 464.11 372.27 463.67 372.92
  Q 457.37 382.18 450.71 394.03
  Q 447.31 400.10 435.42 417.77
  C 432.50 422.11 430.06 426.81 427.76 431.49
  C 425.81 435.44 422.71 438.45 420.99 442.37
  C 419.14 446.61 416.81 450.52 414.44 454.47
  Q 376.00 518.55 337.50 582.48
  Q 328.36 597.65 325.98 601.96"
/>
<path stroke="#3176c0" vector-effect="non-scaling-stroke" d="
  M 325.98 601.96
  Q 323.63 601.84 320.50 601.84
  Q 272.87 601.92 225.25 601.85
  Q 212.24 601.84 205.43 600.82
  Q 185.08 597.79 168.13 586.26
  C 160.29 580.93 153.15 573.79 148.40 565.83
  C 143.16 557.04 139.09 546.84 137.81 536.71
  C 137.15 531.49 136.45 526.88 136.45 521.38
  Q 136.44 514.90 136.66 507.73"
/>
<path stroke="#b0a0cc" vector-effect="non-scaling-stroke" d="
  M 603.34 602.32
  Q 488.17 602.24 373.16 602.31
  Q 373.09 602.31 354.34 602.53
  Q 340.34 602.70 325.98 601.96"
/>
<path stroke="#315e6b" vector-effect="non-scaling-stroke" d="
  M 615.96 802.69
  L 613.71 802.41
  Q 612.14 802.21 613.49 801.39
  Q 618.41 798.42 624.29 795.55
  Q 629.77 792.88 639.04 785.51
  Q 656.01 772.01 663.17 751.67
  C 668.07 737.78 667.45 721.54 663.78 707.35
  C 662.21 701.30 659.56 696.12 656.35 690.86
  Q 642.32 667.87 628.99 645.38
  Q 625.43 639.37 618.64 628.27
  Q 610.78 615.40 603.34 602.32"
/>
<path stroke="#80bd9e" vector-effect="non-scaling-stroke" d="
  M 603.34 602.32
  L 465.14 371.96"
/>
</g>
<path fill="#ffffff" d="
  M 0.00 0.00
  L 928.00 0.00
  L 928.00 807.00
  L 0.00 807.00
  L 0.00 0.00
  Z
  M 136.66 507.73
  Q 134.62 510.72 133.45 512.67
  Q 114.13 545.05 94.28 578.28
  Q 66.28 625.15 35.70 677.75
  Q 22.53 700.40 19.15 706.32
  Q 6.93 727.74 5.57 753.27
  Q 5.01 763.86 8.72 773.46
  C 13.12 784.86 24.42 793.13 36.02 797.31
  Q 40.87 799.06 47.74 800.79
  Q 55.59 802.77 59.75 802.77
  Q 314.64 802.81 610.00 802.58
  Q 612.98 802.58 615.96 802.69
  Q 732.99 802.73 850.02 802.66
  Q 863.48 802.65 869.47 801.98
  Q 879.12 800.89 889.24 797.90
  C 904.32 793.46 919.78 783.58 923.54 767.17
  C 925.07 760.49 925.66 754.45 924.82 747.49
  Q 922.66 729.69 915.60 714.09
  Q 914.63 711.97 913.48 709.99
  Q 776.21 475.55 648.59 257.52
  Q 647.84 256.23 646.94 254.96
  Q 646.00 253.63 645.37 252.33
  Q 641.71 245.54 637.95 239.14
  Q 581.22 142.49 525.49 47.50
  Q 518.10 34.89 507.50 24.61
  C 493.32 10.86 475.77 2.35 456.66 9.91
  C 441.23 16.02 428.23 27.69 417.80 40.87
  Q 413.19 46.69 406.73 57.48
  Q 348.92 153.89 328.63 187.72
  C 326.48 191.31 323.96 195.19 322.09 198.38
  Q 317.85 205.60 307.07 223.56
  Q 235.11 343.49 163.02 463.34
  Q 149.37 486.04 136.66 507.73
  Z"
/>
<path fill="#01abe6" d="
  M 645.37 252.33
  Q 641.59 251.72 640.21 250.88
  Q 633.72 246.90 626.67 243.56
  Q 605.08 233.37 581.97 235.69
  C 562.21 237.68 543.35 249.24 530.38 263.99
  Q 525.73 269.27 519.02 280.15
  Q 513.81 288.58 508.73 297.09
  Q 488.27 331.32 465.89 368.70
  Q 465.14 369.96 465.14 371.96
  Q 464.11 372.27 463.67 372.92
  Q 457.37 382.18 450.71 394.03
  Q 447.31 400.10 435.42 417.77
  C 432.50 422.11 430.06 426.81 427.76 431.49
  C 425.81 435.44 422.71 438.45 420.99 442.37
  C 419.14 446.61 416.81 450.52 414.44 454.47
  Q 376.00 518.55 337.50 582.48
  Q 328.36 597.65 325.98 601.96
  Q 323.63 601.84 320.50 601.84
  Q 272.87 601.92 225.25 601.85
  Q 212.24 601.84 205.43 600.82
  Q 185.08 597.79 168.13 586.26
  C 160.29 580.93 153.15 573.79 148.40 565.83
  C 143.16 557.04 139.09 546.84 137.81 536.71
  C 137.15 531.49 136.45 526.88 136.45 521.38
  Q 136.44 514.90 136.66 507.73
  Q 149.37 486.04 163.02 463.34
  Q 235.11 343.49 307.07 223.56
  Q 317.85 205.60 322.09 198.38
  C 323.96 195.19 326.48 191.31 328.63 187.72
  Q 348.92 153.89 406.73 57.48
  Q 413.19 46.69 417.80 40.87
  C 428.23 27.69 441.23 16.02 456.66 9.91
  C 475.77 2.35 493.32 10.86 507.50 24.61
  Q 518.10 34.89 525.49 47.50
  Q 581.22 142.49 637.95 239.14
  Q 641.71 245.54 645.37 252.33
  Z"
/>
<path fill="#017b3d" d="
  M 645.37 252.33
  Q 646.00 253.63 646.94 254.96
  Q 647.84 256.23 648.59 257.52
  Q 776.21 475.55 913.48 709.99
  Q 914.63 711.97 915.60 714.09
  Q 922.66 729.69 924.82 747.49
  C 925.66 754.45 925.07 760.49 923.54 767.17
  C 919.78 783.58 904.32 793.46 889.24 797.90
  Q 879.12 800.89 869.47 801.98
  Q 863.48 802.65 850.02 802.66
  Q 732.99 802.73 615.96 802.69
  L 613.71 802.41
  Q 612.14 802.21 613.49 801.39
  Q 618.41 798.42 624.29 795.55
  Q 629.77 792.88 639.04 785.51
  Q 656.01 772.01 663.17 751.67
  C 668.07 737.78 667.45 721.54 663.78 707.35
  C 662.21 701.30 659.56 696.12 656.35 690.86
  Q 642.32 667.87 628.99 645.38
  Q 625.43 639.37 618.64 628.27
  Q 610.78 615.40 603.34 602.32
  L 465.14 371.96
  Q 465.14 369.96 465.89 368.70
  Q 488.27 331.32 508.73 297.09
  Q 513.81 288.58 519.02 280.15
  Q 525.73 269.27 530.38 263.99
  C 543.35 249.24 562.21 237.68 581.97 235.69
  Q 605.08 233.37 626.67 243.56
  Q 633.72 246.90 640.21 250.88
  Q 641.59 251.72 645.37 252.33
  Z"
/>
<path fill="#ffffff" d="
  M 465.14 371.96
  L 603.34 602.32
  Q 488.17 602.24 373.16 602.31
  Q 373.09 602.31 354.34 602.53
  Q 340.34 602.70 325.98 601.96
  Q 328.36 597.65 337.50 582.48
  Q 376.00 518.55 414.44 454.47
  C 416.81 450.52 419.14 446.61 420.99 442.37
  C 422.71 438.45 425.81 435.44 427.76 431.49
  C 430.06 426.81 432.50 422.11 435.42 417.77
  Q 447.31 400.10 450.71 394.03
  Q 457.37 382.18 463.67 372.92
  Q 464.11 372.27 465.14 371.96
  Z"
/>
<path fill="#604199" d="
  M 136.66 507.73
  Q 136.44 514.90 136.45 521.38
  C 136.45 526.88 137.15 531.49 137.81 536.71
  C 139.09 546.84 143.16 557.04 148.40 565.83
  C 153.15 573.79 160.29 580.93 168.13 586.26
  Q 185.08 597.79 205.43 600.82
  Q 212.24 601.84 225.25 601.85
  Q 272.87 601.92 320.50 601.84
  Q 323.63 601.84 325.98 601.96
  Q 340.34 602.70 354.34 602.53
  Q 373.09 602.31 373.16 602.31
  Q 488.17 602.24 603.34 602.32
  Q 610.78 615.40 618.64 628.27
  Q 625.43 639.37 628.99 645.38
  Q 642.32 667.87 656.35 690.86
  C 659.56 696.12 662.21 701.30 663.78 707.35
  C 667.45 721.54 668.07 737.78 663.17 751.67
  Q 656.01 772.01 639.04 785.51
  Q 629.77 792.88 624.29 795.55
  Q 618.41 798.42 613.49 801.39
  Q 612.14 802.21 613.71 802.41
  L 615.96 802.69
  Q 612.98 802.58 610.00 802.58
  Q 314.64 802.81 59.75 802.77
  Q 55.59 802.77 47.74 800.79
  Q 40.87 799.06 36.02 797.31
  C 24.42 793.13 13.12 784.86 8.72 773.46
  Q 5.01 763.86 5.57 753.27
  Q 6.93 727.74 19.15 706.32
  Q 22.53 700.40 35.70 677.75
  Q 66.28 625.15 94.28 578.28
  Q 114.13 545.05 133.45 512.67
  Q 134.62 510.72 136.66 507.73
  Z"
/>
</svg>
